<svg width="22" height="22" viewBox="0 0 22 22" fill="none" xmlns="http://www.w3.org/2000/svg">
<path d="M10.447 11.036C10.447 11.5234 10.8421 11.9185 11.3295 11.9185C11.8168 11.9185 12.2119 11.5234 12.2119 11.036C12.2119 10.5487 11.8168 10.1536 11.3295 10.1536C10.8421 10.1536 10.447 10.5487 10.447 11.036Z" stroke="#CBD5E0" stroke-width="1.76491" stroke-linecap="round" stroke-linejoin="round"/>
<path d="M4.26927 11.036C4.26927 11.5234 4.66436 11.9185 5.15172 11.9185C5.63909 11.9185 6.03418 11.5234 6.03418 11.036C6.03418 10.5487 5.63909 10.1536 5.15172 10.1536C4.66436 10.1536 4.26927 10.5487 4.26927 11.036Z" stroke="#CBD5E0" stroke-width="1.76491" stroke-linecap="round" stroke-linejoin="round"/>
<path d="M16.6238 11.036C16.6238 11.5234 17.0188 11.9185 17.5062 11.9185C17.9936 11.9185 18.3887 11.5234 18.3887 11.036C18.3887 10.5487 17.9936 10.1536 17.5062 10.1536C17.0188 10.1536 16.6238 10.5487 16.6238 11.036Z" stroke="#CBD5E0" stroke-width="1.76491" stroke-linecap="round" stroke-linejoin="round"/>
</svg>
